<svg width="126" height="31" viewBox="0 0 126 31" fill="none" xmlns="http://www.w3.org/2000/svg">
<path d="M18.8861 21.822C18.8861 21.822 13.2549 18.5371 13.0918 14.7917C13.0918 14.7917 11.1793 19.3643 0 24.2351C0 24.2351 2.21051 24.0074 3.50096 23.429C3.50096 23.429 8.80817 21.4712 12.2288 17.6053C14.3875 19.3774 14.2242 19.1182 15.7946 20.1468L18.8861 21.822Z" fill="#030403"/>
<path d="M15.0197 28.8484C15.0197 28.8484 20.3424 16.4317 19.964 6.06177C19.964 6.06177 26.8054 20.143 42.1413 29.7435C42.1413 29.7435 41.6515 29.9974 40.8248 30H40.8145C39.9827 29.9974 38.8113 29.7409 37.4508 28.7202C37.4508 28.7202 26.1732 20.6561 21.1043 11.1839C21.1043 11.1839 19.394 21.0382 16.9218 26.4142L15.0197 28.8484Z" fill="#030403"/>
<path d="M27.0516 18.9933C27.0412 19.0039 27.0308 19.0144 27.0205 19.0275C24.2191 21.9222 19.6402 22.3698 16.3025 20.0745C16.0433 19.8964 15.7893 19.7106 15.5354 19.5273C15.7842 19.7969 16.033 20.0666 16.2843 20.3334C16.6782 20.6397 17.0566 20.9617 17.4659 21.2443C21.0214 23.6992 25.6937 23.503 29.0781 20.8857L27.0516 18.9933Z" fill="#030403"/>
<path d="M19.3422 3.20367C18.6037 10.6997 17.7562 14.6205 17.212 16.5259C14.6103 14.9895 12.8585 12.1367 12.8585 8.87027C12.8585 3.97058 16.7896 0 21.6408 0C26.4893 0 30.4203 3.97058 30.4203 8.87027C30.4203 11.1133 29.5937 13.1627 28.2332 14.7252C23.4495 10.2574 19.3422 3.20367 19.3422 3.20367Z" fill="#ED1F23"/>
<path d="M47.4161 21.6151L50.2847 21.2675H50.7393L53.5656 21.6151V22.5337H47.4161V21.6151ZM42.9283 16.4345H49.0777L49.4433 17.4946H42.563L42.9283 16.4345ZM45.593 7H46.9572L52.197 22.5337H50.0807L45.4995 8.75116H46.0264L41.3773 22.5337H40.3064L45.593 7ZM38.8019 21.6151L41.0798 21.2675H41.5386L44.0418 21.6151V22.5337H38.8019V21.6151Z" fill="#030403"/>
<path d="M57.7812 14.3665H60.6285C63.0891 14.3665 64.2706 13.0316 64.2706 11.1687C64.2706 9.233 63.2465 8.17715 60.8794 8.17715H57.7812V7.11688H60.9006C64.3854 7.11688 66.4379 8.61493 66.4379 11.1687C66.4379 13.1218 64.9125 14.8944 61.9247 15.1476L61.9927 14.9631C63.6331 15.1262 64.636 15.886 65.2522 17.955L66.3701 21.775L65.6603 21.3371L68.0103 21.6161V22.5347C67.5981 22.6721 67.05 22.7665 66.3701 22.7665C64.9548 22.7665 64.3384 22.3974 64.0667 21.3371L63.1315 17.5857C62.6769 15.7228 61.8356 15.401 59.9445 15.401H57.7812V14.3665ZM56.7528 14.2507C56.7528 11.8813 56.7528 9.48624 56.6849 7.11688H58.8734C58.8055 9.51196 58.8055 11.7655 58.8055 14.4825V15.1693C58.8055 17.7704 58.8055 20.1653 58.8734 22.5347H56.6849C56.7528 20.2126 56.7528 17.8176 56.7528 15.401V14.2507ZM58.0066 21.2685L60.9686 21.6161V22.5347H54.5897V21.6161L57.5518 21.2685H58.0066ZM54.5897 8.03976V7.11688H57.7812V8.38312H57.5518L54.5897 8.03976Z" fill="#030403"/>
<path d="M77.3005 21.6151L80.1733 21.2675H80.628L83.4539 21.6151V22.5337H77.3005V21.6151ZM72.8128 16.4345H78.9663L79.3317 17.4946H72.4514L72.8128 16.4345ZM75.4815 7H76.8457L82.0856 22.5337H79.9692L75.3881 8.75116H75.9107L71.266 22.5337H70.1948L75.4815 7ZM68.6904 21.6151L70.9683 21.2675H71.4229L73.9304 21.6151V22.5337H68.6904V21.6151Z" fill="#030403"/>
<path d="M87.6653 14.3665H90.5126C92.9776 14.3665 94.159 13.0316 94.159 11.1687C94.159 9.233 93.1348 8.17715 90.7678 8.17715H87.6653V7.11688H90.7888C94.2736 7.11688 96.3264 8.61493 96.3264 11.1687C96.3264 13.1218 94.7964 14.8944 91.8131 15.1476L91.8811 14.9631C93.5215 15.1262 94.5244 15.886 95.1407 17.955L96.2542 21.775L95.5485 21.3371L97.8945 21.6161V22.5347C97.4865 22.6721 96.9384 22.7665 96.2542 22.7665C94.8432 22.7665 94.227 22.3974 93.9549 21.3371L93.0199 17.5857C92.5653 15.7228 91.724 15.401 89.8326 15.401H87.6653V14.3665ZM86.6411 14.2507C86.6411 11.8813 86.6411 9.48624 86.5732 7.11688H88.7617C88.6937 9.51196 88.6937 11.7655 88.6937 14.4825V15.1693C88.6937 17.7704 88.6937 20.1653 88.7617 22.5347H86.5732C86.6411 20.2126 86.6411 17.8176 86.6411 15.401V14.2507ZM87.8947 21.2685L90.857 21.6161V22.5347H84.4781V21.6161L87.4401 21.2685H87.8947ZM84.4781 8.03976V7.11688H87.6653V8.38312H87.4401L84.4781 8.03976Z" fill="#030403"/>
<path d="M107.188 21.6151L110.061 21.2675H110.516L113.342 21.6151V22.5337H107.188V21.6151ZM102.701 16.4345H108.854L109.216 17.4946H102.335L102.701 16.4345ZM105.365 7H106.734L111.974 22.5337H109.857L105.276 8.75116H105.799L101.154 22.5337H100.083L105.365 7ZM98.5786 21.6151L100.857 21.2675H101.311L103.819 21.6151V22.5337H98.5786V21.6151Z" fill="#030403"/>
<path d="M118.034 14.2507C118.034 11.8813 118.034 9.48621 117.966 7.11685H120.154C120.082 9.44324 120.082 11.8341 120.082 14.2507V15.401C120.082 17.7704 120.082 20.1653 120.154 22.5347H117.966C118.034 20.2126 118.034 17.8176 118.034 15.401V14.2507ZM119.288 21.2684L122.475 21.616V22.5347H115.641V21.616L118.829 21.2684H119.288ZM113.636 8.26712L114.66 7.11685L113.933 11.2116H112.658L112.841 7.11685H125.28L125.463 11.2116H124.183L123.456 7.11685L124.481 8.26712H113.636Z" fill="#030403"/>
<path d="M92.5187 29.0385H90.891V28.8369C91.3372 28.7938 91.3797 28.7594 91.3797 28.2958V26.8066C91.3797 26.3344 91.3542 26.313 90.9421 26.2658V26.0855C91.2904 26.0295 91.6049 25.9438 91.9406 25.7936V26.5791C92.1872 26.2057 92.4848 25.8151 92.8374 25.8151C93.1009 25.8151 93.2497 25.9782 93.2497 26.1584C93.2497 26.3216 93.1349 26.4805 93.0074 26.5491C92.935 26.5919 92.8799 26.5876 92.8246 26.5363C92.7185 26.4287 92.6334 26.3601 92.5058 26.3601C92.3571 26.3601 92.0938 26.5791 91.9406 26.944V28.2873C91.9406 28.7594 91.9747 28.7938 92.5187 28.8369V29.0385Z" fill="#ED1F23"/>
<path d="M98.2003 26.0856C97.8732 26.0856 97.5545 26.3947 97.4568 26.9742C97.852 26.9742 98.2472 26.9742 98.6635 26.9527C98.7912 26.9527 98.8336 26.914 98.8336 26.8067C98.8422 26.429 98.5958 26.0856 98.2003 26.0856ZM99.416 28.4293C98.9612 29.0001 98.4682 29.1245 98.2431 29.1245C97.3803 29.1245 96.8533 28.4078 96.8533 27.588C96.8533 27.1029 97.0233 26.6522 97.3164 26.3345C97.6098 25.9998 98.0007 25.8154 98.3704 25.8154C98.9825 25.8154 99.4499 26.3518 99.4499 26.9227C99.4456 27.0641 99.4243 27.1287 99.3097 27.1586C99.1692 27.1888 98.2642 27.2531 97.4228 27.2789C97.4014 28.236 97.9794 28.6309 98.4809 28.6309C98.7699 28.6309 99.0418 28.5065 99.3012 28.2661L99.416 28.4293Z" fill="#ED1F23"/>
<path d="M104.924 27.3173C104.77 27.3947 104.431 27.545 104.269 27.6136C103.997 27.7382 103.835 27.8713 103.835 28.1373C103.835 28.515 104.12 28.6869 104.345 28.6869C104.528 28.6869 104.783 28.5708 104.924 28.4293V27.3173ZM105.442 29.1245C105.336 29.1245 105.178 29.0645 105.111 28.9873C105.017 28.8928 104.975 28.7939 104.941 28.6651C104.656 28.8585 104.311 29.1245 104.091 29.1245C103.589 29.1245 103.228 28.6995 103.228 28.2446C103.228 27.8926 103.419 27.6652 103.806 27.5278C104.239 27.382 104.77 27.1929 104.924 27.0641V26.9227C104.924 26.4162 104.673 26.1241 104.303 26.1241C104.142 26.1241 104.04 26.2015 103.972 26.2874C103.891 26.3861 103.844 26.5449 103.78 26.7508C103.742 26.8668 103.683 26.914 103.576 26.914C103.44 26.914 103.262 26.7723 103.262 26.6006C103.262 26.502 103.355 26.4162 103.496 26.3131C103.704 26.1673 104.112 25.901 104.515 25.8154C104.728 25.8154 104.945 25.8796 105.111 26.0084C105.357 26.223 105.472 26.4634 105.472 26.8369V28.2145C105.472 28.545 105.591 28.6437 105.718 28.6437C105.803 28.6437 105.892 28.6094 105.973 28.5665L106.041 28.764L105.442 29.1245Z" fill="#ED1F23"/>
<path d="M109.53 29.0379V28.8363C109.985 28.7932 110.04 28.7589 110.04 28.2869V24.866C110.04 24.428 110.002 24.3851 109.551 24.3294V24.1448C109.934 24.1018 110.372 23.9859 110.597 23.9001V24.9131V28.2869C110.597 28.7589 110.639 28.7932 111.098 28.8363V29.0379H109.53Z" fill="#ED1F23"/>
<path d="M116.155 29.0298C116.036 29.0942 115.921 29.1244 115.854 29.1244C115.399 29.1244 115.161 28.8453 115.161 28.2745V26.1926H114.672L114.643 26.1069L114.834 25.9008H115.161V25.2999C115.293 25.1581 115.501 24.9736 115.633 24.8278L115.739 24.8448C115.726 25.1455 115.718 25.5574 115.718 25.9008H116.525C116.589 25.9737 116.568 26.1284 116.483 26.1926H115.718V28.0212C115.718 28.6007 115.947 28.7081 116.13 28.7081C116.3 28.7081 116.461 28.6436 116.559 28.592L116.623 28.7809L116.155 29.0298Z" fill="#ED1F23"/>
<path d="M123.316 26.1005C122.947 26.1564 122.87 26.212 122.692 26.6199C122.517 27.0233 122.326 27.5084 121.837 28.7489C121.378 29.8948 121.251 30.3368 121.136 30.7059C121.094 30.8563 121.017 30.8949 120.924 30.8949C120.699 30.8949 120.494 30.7274 120.494 30.5515C120.494 30.457 120.541 30.3927 120.647 30.3026C120.877 30.1222 121.038 29.9506 121.123 29.7704C121.272 29.4742 121.378 29.2208 121.412 29.1309C121.442 29.0234 121.442 28.9591 121.4 28.8345C121.123 28.0234 120.741 27.1436 120.528 26.6284C120.371 26.2378 120.307 26.152 119.921 26.1005V25.9072H121.349V26.1005C121.026 26.152 120.987 26.2207 121.081 26.4869L121.765 28.2422C121.965 27.7487 122.245 26.959 122.394 26.5083C122.479 26.2378 122.432 26.1564 122.02 26.1005V25.9072H123.316V26.1005Z" fill="#ED1F23"/>
</svg>
