<svg width="78" height="44" viewBox="0 0 78 44" fill="none" xmlns="http://www.w3.org/2000/svg">
<path d="M17.1074 25.2515L19.2681 25.5322C19.0321 27.0215 18.4258 28.1893 17.4492 29.0356C16.4808 29.8739 15.2886 30.293 13.8726 30.293C12.0985 30.293 10.6702 29.7152 9.58789 28.5596C8.51367 27.3958 7.97656 25.7316 7.97656 23.5669C7.97656 22.1672 8.2085 20.9424 8.67236 19.8926C9.13623 18.8428 9.84017 18.0575 10.7842 17.5366C11.7363 17.0076 12.7699 16.7432 13.8848 16.7432C15.2926 16.7432 16.4442 17.1012 17.3394 17.8174C18.2345 18.5254 18.8083 19.5345 19.0605 20.8447L16.9243 21.1743C16.7209 20.3035 16.3587 19.6484 15.8379 19.209C15.3252 18.7695 14.7026 18.5498 13.9702 18.5498C12.8634 18.5498 11.9642 18.9486 11.2725 19.7461C10.5807 20.5355 10.2349 21.7887 10.2349 23.5059C10.2349 25.2474 10.5685 26.5129 11.2358 27.3022C11.9032 28.0916 12.7739 28.4863 13.8481 28.4863C14.7108 28.4863 15.431 28.2218 16.0088 27.6929C16.5866 27.1639 16.9528 26.3501 17.1074 25.2515ZM25.9453 28.0347L26.2627 29.9756C25.6442 30.1058 25.0908 30.1709 24.6025 30.1709C23.805 30.1709 23.1865 30.0448 22.7471 29.7925C22.3076 29.5402 21.9984 29.2106 21.8193 28.8037C21.6403 28.3887 21.5508 27.522 21.5508 26.2036V18.7451H19.9395V17.0361H21.5508V13.8257L23.7358 12.5073V17.0361H25.9453V18.7451H23.7358V26.3257C23.7358 26.9523 23.7725 27.3551 23.8457 27.5342C23.9271 27.7132 24.0532 27.8556 24.2241 27.9614C24.4032 28.0672 24.6554 28.1201 24.981 28.1201C25.2251 28.1201 25.5465 28.0916 25.9453 28.0347ZM28.0815 30V17.0361H30.0591V19.0015C30.5636 18.0819 31.0275 17.4756 31.4507 17.1826C31.882 16.8896 32.354 16.7432 32.8667 16.7432C33.6073 16.7432 34.36 16.9792 35.125 17.4512L34.3682 19.4897C33.8311 19.1724 33.2939 19.0137 32.7568 19.0137C32.2767 19.0137 31.8454 19.1602 31.4629 19.4531C31.0804 19.738 30.8078 20.1367 30.645 20.6494C30.4009 21.4307 30.2788 22.2852 30.2788 23.2129V30H28.0815ZM36.3823 30V12.1045H38.5796V30H36.3823Z" fill="black"/>
<path d="M2.03613 34.9619V7.52539H7.85156V9.70801H4.67285V32.7793H7.85156V34.9619H2.03613Z" fill="url(#paint0_linear_3482_485)"/>
<path d="M46.3867 34.9619H40.5713V32.7793H43.75V9.70801H40.5713V7.52539H46.3867V34.9619Z" fill="url(#paint1_linear_3482_485)"/>
<path d="M52.8198 7.44092H63.8359C66.0166 7.44092 67.6396 7.53491 68.7048 7.7229C69.7826 7.89836 70.7414 8.27433 71.5811 8.85083C72.4333 9.42733 73.1414 10.1981 73.7053 11.1631C74.2693 12.1156 74.5513 13.1871 74.5513 14.3777C74.5513 15.6685 74.2004 16.8529 73.4985 17.9307C72.8092 19.0085 71.8693 19.8168 70.6787 20.3557C72.3581 20.8445 73.6489 21.6779 74.5513 22.856C75.4536 24.034 75.9048 25.4189 75.9048 27.0105C75.9048 28.2638 75.6103 29.4857 75.0212 30.6763C74.4447 31.8543 73.6489 32.8005 72.6338 33.5149C71.6312 34.2167 70.3905 34.6491 68.9116 34.812C67.9842 34.9123 65.7472 34.9749 62.2004 35H52.8198V7.44092ZM58.3843 12.0278V18.4006H62.0312C64.1994 18.4006 65.5466 18.3693 66.073 18.3066C67.0255 18.1938 67.7712 17.868 68.3101 17.3291C68.8615 16.7777 69.1372 16.057 69.1372 15.1672C69.1372 14.315 68.8991 13.6257 68.4229 13.0994C67.9591 12.5605 67.2636 12.2346 66.3362 12.1218C65.7847 12.0592 64.1994 12.0278 61.5801 12.0278H58.3843ZM58.3843 22.9875V30.3567H63.5352C65.5404 30.3567 66.8124 30.3003 67.3513 30.1875C68.1785 30.0371 68.849 29.6737 69.3628 29.0972C69.8892 28.5081 70.1523 27.7249 70.1523 26.7473C70.1523 25.9202 69.9518 25.2183 69.5508 24.6418C69.1497 24.0653 68.567 23.6455 67.8025 23.3823C67.0505 23.1191 65.4088 22.9875 62.8772 22.9875H58.3843Z" fill="url(#paint2_linear_3482_485)"/>
<defs>
<linearGradient id="paint0_linear_3482_485" x1="4.5" y1="2" x2="4.5" y2="36" gradientUnits="userSpaceOnUse">
<stop stop-color="#017CBA"/>
<stop offset="1" stop-color="#0161AD"/>
</linearGradient>
<linearGradient id="paint1_linear_3482_485" x1="44.5" y1="2" x2="44.5" y2="36" gradientUnits="userSpaceOnUse">
<stop stop-color="#017CBA"/>
<stop offset="1" stop-color="#0161AD"/>
</linearGradient>
<linearGradient id="paint2_linear_3482_485" x1="64" y1="0" x2="64" y2="44" gradientUnits="userSpaceOnUse">
<stop stop-color="#0185BF"/>
<stop offset="1" stop-color="#0158A8"/>
</linearGradient>
</defs>
</svg>
