<?xml version="1.0" encoding="UTF-8"?> <svg xmlns="http://www.w3.org/2000/svg" width="165" height="54" viewBox="0 0 165 54" fill="none"> <path d="M70.9886 11.357L68.4338 29.0136C68.3581 29.6192 68.4527 30.0355 68.7177 30.2626C68.9826 30.4519 69.3233 30.5465 69.7396 30.5465C70.648 30.5465 71.5375 30.3383 72.408 29.922C73.2785 29.5056 74.414 28.7676 75.8144 27.7078L77.8583 32.5903C75.3602 35.3533 72.9947 37.3783 70.7616 38.6651C68.5284 39.9142 66.2764 40.5387 64.0055 40.5387C61.0532 40.5387 58.8958 39.8385 57.5333 38.438C56.2085 36.9998 55.7354 34.9748 56.1139 32.3632L59.0094 11.357H70.9886ZM89.0427 11.357L85.1253 39.7438H75.8144L75.4738 32.1362L74.3951 31.4549L77.2338 11.357H89.0427Z" fill="#F34439"></path> <path d="M105.693 10.5621C107.207 10.5621 108.854 10.6189 110.633 10.7324C112.412 10.846 114.134 10.9974 115.799 11.1866C117.502 11.3759 118.903 11.603 120 11.8679L119.035 18.7375C117.181 18.7375 115.326 18.7375 113.471 18.7375C111.617 18.7375 109.857 18.7375 108.191 18.7375C106.867 18.7375 105.845 18.7565 105.126 18.7943C104.444 18.7943 103.971 18.8322 103.706 18.9079C103.441 18.9836 103.29 19.116 103.252 19.3053C103.214 19.5702 103.366 19.8162 103.706 20.0433C104.085 20.2704 104.861 20.5354 106.034 20.8382L112.222 22.4846C113.774 22.901 115.061 23.5065 116.083 24.3014C117.105 25.0962 117.843 26.0992 118.297 27.3104C118.751 28.4837 118.884 29.8652 118.695 31.4549C118.392 33.9529 117.635 35.8454 116.424 37.1322C115.212 38.3813 113.585 39.2329 111.541 39.6871C109.535 40.1413 107.113 40.3683 104.274 40.3683C103.101 40.3683 101.757 40.3305 100.243 40.2548C98.767 40.217 97.1395 40.1034 95.3606 39.9142C93.6195 39.7249 91.746 39.46 89.7399 39.1193L90.7051 32.2497C91.1971 32.2497 91.9731 32.2497 93.0328 32.2497C94.0926 32.2497 95.2659 32.2497 96.5528 32.2497C97.8397 32.2497 99.0698 32.2497 100.243 32.2497C102.211 32.2497 103.687 32.2308 104.671 32.1929C105.656 32.1172 106.318 32.0226 106.659 31.9091C107.037 31.7577 107.245 31.5684 107.283 31.3413C107.321 31.1521 107.264 31.0007 107.113 30.8871C106.961 30.7357 106.659 30.5843 106.204 30.4329C105.75 30.2437 105.088 30.0355 104.217 29.8084L98.256 28.1052C96.4771 27.5753 95.0767 26.8562 94.0548 25.9478C93.0707 25.0016 92.4083 23.885 92.0677 22.5982C91.7649 21.3113 91.727 19.9109 91.9541 18.3969C92.2191 16.7315 92.7868 15.3311 93.6573 14.1956C94.5279 13.0223 95.9094 12.1329 97.8018 11.5273C99.7321 10.8838 102.363 10.5621 105.693 10.5621Z" fill="#F34439"></path> <path d="M156.503 11.357C156.238 13.4387 155.784 15.6339 155.14 17.9427C154.535 20.2137 153.834 22.4657 153.04 24.6988C152.245 26.9319 151.431 29.0325 150.598 31.0007C149.803 32.931 149.047 34.6342 148.327 36.1103C147.646 37.5486 147.078 38.6084 146.624 39.2896C144.845 42.0905 142.839 44.4182 140.606 46.2728C138.411 48.1653 135.989 49.5279 133.339 50.3605C130.69 51.2311 127.756 51.5906 124.539 51.4392L123.801 45.0238C125.164 44.5318 126.432 44.0965 127.605 43.718C128.816 43.3395 129.952 42.8285 131.011 42.1851C132.109 41.5795 133.169 40.709 134.191 39.5735C135.213 38.4002 136.235 36.7916 137.256 34.7477C138.354 32.5903 139.281 30.3762 140.038 28.1052C140.833 25.7964 141.515 23.2794 142.082 20.5543C142.688 17.8292 143.237 14.7634 143.729 11.357H156.503ZM135.553 11.357L136.007 31.682C136.007 32.2875 136.31 32.5903 136.916 32.5903H140.095L137.767 39.7438H129.535C128.589 39.7438 127.794 39.46 127.151 38.8922C126.507 38.2866 126.129 37.5675 126.015 36.7348L122.495 11.357H135.553Z" fill="#F34439"></path> <path d="M44.6377 10.5599C46.9843 10.5599 48.8389 11.1087 50.2015 12.2064C51.6019 13.304 52.5103 14.9694 52.9266 17.2025C53.3808 19.4356 53.343 22.2553 52.8131 25.6618C52.5481 27.5164 52.0939 29.3331 51.4505 31.112C50.8449 32.8531 49.9365 34.4238 48.7254 35.8242C47.5142 37.2247 45.8867 38.3412 43.8428 39.1739C41.8368 40.0066 39.282 40.4229 36.1784 40.4229C35.1186 40.4229 33.8317 40.3661 32.3177 40.2526C30.8416 40.1769 29.3087 40.0445 27.7191 39.8552C26.1294 39.666 24.6533 39.4199 23.2907 39.1171C21.9281 38.8144 20.8494 38.4548 20.0546 38.0384L20.687 33.5312H4.73115C3.75129 33.5312 2.95697 32.7369 2.95697 31.757C2.95697 30.7772 3.75129 29.9828 4.73115 29.9828H21.1848L22.1805 22.8861H11.2365C10.2566 22.8861 9.46229 22.0918 9.46229 21.1119C9.46229 20.1321 10.2566 19.3377 11.2365 19.3377H22.6783L23.6739 12.241H1.77418C0.794324 12.241 0 11.4467 0 10.4668C0 9.48699 0.794324 8.69266 1.77418 8.69266H24.1718L24.8934 3.54901H10.6451C9.66522 3.54901 8.8709 2.75469 8.8709 1.77483C8.8709 0.794974 9.66522 0.000649724 10.6451 0.000649724H25.3913L25.3913 0H37.3706L36.4622 6.98316C36.3108 8.38361 36.0648 9.7651 35.7242 11.1276C35.463 12.2702 35.0752 13.4689 34.5607 14.724C35.2354 14.0888 35.945 13.5145 36.6893 13.0012C37.8248 12.2442 39.0549 11.6575 40.3796 11.2412C41.7043 10.787 43.1237 10.5599 44.6377 10.5599Z" fill="#F34439"></path> <path d="M7.00775 21.1156C7.00775 22.0852 6.22169 22.8713 5.25203 22.8713C4.28237 22.8713 3.4963 22.0852 3.4963 21.1156C3.4963 20.1459 4.28237 19.3598 5.25203 19.3598C6.22169 19.3598 7.00775 20.1459 7.00775 21.1156Z" fill="#F34439"></path> <path d="M43.0042 19.1953L37.876 24.3234C37.4472 24.1114 36.9648 23.9916 36.4549 23.9916C35.9448 23.9916 35.4625 24.1114 35.0337 24.3234L32.7386 22.0283C32.3342 21.624 31.6788 21.624 31.2742 22.0283C30.8699 22.4326 30.8699 23.0882 31.2742 23.4926L33.5694 25.7877C33.3572 26.2165 33.2375 26.6989 33.2375 27.2088C33.2375 28.9828 34.6807 30.4262 36.4549 30.4262C38.229 30.4262 39.6722 28.9828 39.6722 27.2088C39.6722 26.6989 39.5524 26.2165 39.3403 25.7877L44.318 20.81L44.4685 20.6596C44.8728 20.2552 44.8728 19.5996 44.4685 19.1953C44.0641 18.791 43.4088 18.791 43.0042 19.1953ZM36.4549 28.3555C35.8227 28.3555 35.3083 27.8411 35.3083 27.2089C35.3083 26.5767 35.8227 26.0624 36.4549 26.0624C37.0871 26.0624 37.6014 26.5767 37.6014 27.2089C37.6014 27.8411 37.0871 28.3555 36.4549 28.3555Z" fill="white"></path> <path d="M25.6633 46.6913V48.3478C25.6633 49.2313 25.4425 49.6178 24.7641 49.6178C24.0699 49.6178 23.8412 49.0972 23.8412 48.3478V46.6913H21.664V45.3819H20.607V51.3532H21.664V47.6221H22.792V48.3478C22.792 49.7914 23.4862 50.5723 24.7641 50.5723C26.042 50.5723 26.7203 49.7914 26.7203 48.3478V46.6913H25.6633Z" fill="#F34439"></path> <path d="M30.8618 47.133V49.2155C30.8618 49.8939 30.4674 50.4145 29.7969 50.4224C29.2368 50.4224 28.8976 50.0674 28.8976 49.4758V45.3819H26.6968V46.1312H27.8643V49.7756C27.8643 50.7695 28.448 51.3927 29.3946 51.3927C30.0651 51.3927 30.5699 51.1324 30.8618 50.5723V51.3532H31.8951V47.133H30.8618Z" fill="#F34439"></path> <path d="M38.5118 47.133V49.4601C38.4408 50.0201 38.1016 50.4145 37.5731 50.4303C37.0525 50.4303 36.8316 50.0753 36.8316 49.4758V47.133H35.8061V49.2155C35.8061 49.9018 35.4512 50.4145 34.8596 50.4303C34.3626 50.4303 34.1181 50.0753 34.1181 49.4758V47.133H33.0926V49.7756C33.0926 50.7695 33.5974 51.3927 34.4573 51.3927C35.1356 51.3927 35.6326 51.0771 35.885 50.383C36.0586 51.014 36.524 51.3927 37.2023 51.3927C37.794 51.3927 38.2436 51.1481 38.5118 50.6275V51.3532H39.5373V47.133H38.5118Z" fill="#F34439"></path> <path d="M40.6473 52.3471C41.9331 51.7871 40.8524 50.7064 40.8524 49.3496V47.133H41.8858V49.4364C41.9173 50.7143 43.353 52.6469 40.6473 53.065V52.3471Z" fill="#F34439"></path> <path d="M45.9186 47.0936C45.2323 47.1015 44.7038 47.3618 44.404 47.9219V45.3819H43.3707V53.0176H44.404V49.113C44.4671 48.5056 44.8694 48.0717 45.5084 48.0638C46.0921 48.0638 46.4471 48.4267 46.4471 49.0183V51.3532H47.4804V48.7186C47.4804 47.7168 46.8888 47.0936 45.9186 47.0936Z" fill="#F34439"></path> <path d="M47.4006 44.6167L46.5092 46.3442H47.3296L48.568 44.6167H47.4006Z" fill="#F34439"></path> <path d="M51.7808 47.0936C51.0945 47.1015 50.566 47.3618 50.2663 47.9219V47.133H49.2329V53.0176H50.2663V49.113C50.3294 48.5056 50.7317 48.0717 51.3706 48.0638C51.9543 48.0638 52.3093 48.4267 52.3093 49.0183V51.3532H53.3427V48.7186C53.3427 47.7168 52.751 47.0936 51.7808 47.0936Z" fill="#F34439"></path> <path d="M62.238 47.133V49.4601C62.167 50.0201 61.8278 50.4145 61.2993 50.4303C60.7787 50.4303 60.5578 50.0753 60.5578 49.4758V47.133H59.5324V49.2155C59.5324 49.9018 59.1774 50.4145 58.5858 50.4303C58.0888 50.4303 57.8443 50.0753 57.8443 49.4758V47.133H56.8188V49.7756C56.8188 50.7695 57.3237 51.3927 58.1835 51.3927C58.8619 51.3927 59.3588 51.0771 59.6112 50.383C59.7848 51.014 60.2502 51.3927 60.9286 51.3927C61.5202 51.3927 61.9698 51.1481 62.238 50.6275V51.3532H63.2635V47.133H62.238Z" fill="#F34439"></path> <path d="M73.9656 47.8903V47.1409H70.7315V45.3819C69.9505 45.516 69.0828 45.516 68.436 45.3819C66.8662 44.9638 65.8644 46.0208 66.4797 46.8569C67.0477 47.4959 67.4657 48.0717 67.4657 48.8527V49.1919C67.4657 49.8781 67.0713 50.3909 66.4008 50.4066C65.8408 50.4224 65.4937 50.0517 65.4937 49.4601V47.1173H64.4682V49.7519C64.4682 50.7537 65.0519 51.3769 65.9985 51.3769C66.669 51.3769 67.1739 51.1166 67.4657 50.5565V51.3374H68.4991V48.8842C68.4991 48.1743 68.365 47.6142 67.8365 47.1251C67.0003 46.3521 67.3947 45.8551 68.4281 46.218C68.7278 46.3206 69.2011 46.431 69.706 46.3679V49.7756C69.706 50.7695 70.2818 51.3927 71.2363 51.3927C71.8989 51.3927 72.4116 51.1324 72.7035 50.5644V51.3532H73.7369V48.687H72.7035V49.2155C72.7035 49.8939 72.3091 50.4145 71.6386 50.4224C71.0785 50.4224 70.7315 50.0674 70.7315 49.4758V47.8903H73.9656Z" fill="#F34439"></path> <path d="M77.9522 47.133V49.2155C77.9522 49.8939 77.5578 50.4145 76.8873 50.4224C76.3272 50.4224 75.988 50.0674 75.988 49.4758V45.3819H73.7872V46.1312H74.9547V49.7756C74.9547 50.7695 75.5384 51.3927 76.485 51.3927C77.1555 51.3927 77.6603 51.1324 77.9522 50.5723V51.3532H78.9855V47.133H77.9522Z" fill="#F34439"></path> <path d="M85.6022 47.133V49.4601C85.5312 50.0201 85.192 50.4145 84.6635 50.4303C84.1429 50.4303 83.922 50.0753 83.922 49.4758V47.133H82.8965V49.2155C82.8965 49.9018 82.5416 50.4145 81.95 50.4303C81.453 50.4303 81.2085 50.0753 81.2085 49.4758V47.133H80.183V49.7756C80.183 50.7695 80.6878 51.3927 81.5477 51.3927C82.226 51.3927 82.723 51.0771 82.9754 50.383C83.149 51.014 83.6144 51.3927 84.2927 51.3927C84.8844 51.3927 85.334 51.1481 85.6022 50.6275V51.3532H86.6277V47.133H85.6022Z" fill="#F34439"></path> <path d="M93.6539 48.687H92.8808C92.8414 47.6379 91.9106 47.0778 90.9325 47.0778C90.191 47.0778 89.41 47.3697 88.9446 47.9692V47.133H87.9113V53.0176H88.9446V49.2786C88.9446 48.616 89.8123 47.9771 90.609 47.9771C91.177 47.9771 91.7134 48.2216 91.8554 48.687H91.248C90.3014 48.687 89.7019 49.2076 89.7019 50.0201C89.7019 50.9115 90.4039 51.4242 91.3111 51.4242C92.1157 51.4242 92.8808 50.9273 92.8808 49.9491V49.4206H93.6539V48.687ZM91.8869 50.0438C91.8869 50.3356 91.7765 50.6669 91.2638 50.6669C90.9167 50.6669 90.5696 50.454 90.5696 50.0359C90.5696 49.6099 90.9009 49.4206 91.1849 49.4206H91.8869V50.0438Z" fill="#F34439"></path> <path d="M99.5375 47.133V49.4601C99.4665 50.0201 99.1273 50.4145 98.5988 50.4303C98.0782 50.4303 97.8573 50.0753 97.8573 49.4758V47.133H96.8318V49.2155C96.8318 49.9018 96.4769 50.4145 95.8853 50.4303C95.3883 50.4303 95.1438 50.0753 95.1438 49.4758V47.133H94.1183V49.7756C94.1183 50.7695 94.6231 51.3927 95.483 51.3927C96.1613 51.3927 96.6583 51.0771 96.9107 50.383C97.0843 51.014 97.5497 51.3927 98.228 51.3927C98.8197 51.3927 99.2693 51.1481 99.5375 50.6275V51.3532H100.563V47.133H99.5375Z" fill="#F34439"></path> <path d="M104.991 47.133V49.2155C104.991 49.8939 104.596 50.4145 103.926 50.4224C103.366 50.4224 103.027 50.0674 103.027 49.4758V45.3819H100.826V46.1312H101.993V49.7756C101.993 50.7695 102.577 51.3927 103.524 51.3927C104.194 51.3927 104.699 51.1324 104.991 50.5723V51.3532H106.024V47.133H104.991Z" fill="#F34439"></path> <path d="M110.219 47.133V49.2155C110.219 49.8939 109.825 50.4145 109.154 50.4224C108.594 50.4224 108.247 50.0674 108.247 49.4758V45.3819H107.222V49.7756C107.222 50.7695 107.805 51.3927 108.752 51.3927C109.422 51.3927 109.927 51.1324 110.219 50.5723V53.0176H111.253V47.133H110.219Z" fill="#F34439"></path> <path d="M113.564 52.2683V49.113C113.628 48.5056 114.03 48.0717 114.669 48.0638C115.253 48.0638 115.607 48.4267 115.607 49.0183V51.3217H116.641V48.7186C116.641 47.7168 116.049 47.0936 115.079 47.0936C114.393 47.1015 113.864 47.3618 113.564 47.9219V47.133H112.531V53.0176H116.799V52.2683H113.564Z" fill="#F34439"></path> <path d="M146.854 49.3383C147.092 49.3383 147.272 49.4033 147.395 49.5332C147.525 49.6556 147.575 49.8429 147.545 50.0952L147.464 50.6112C147.441 50.8406 147.364 51.0126 147.234 51.1273C147.111 51.2343 146.923 51.2878 146.669 51.2878H146.243C145.713 51.2878 145.479 51.0355 145.541 50.5309L145.61 50.0149C145.679 49.5638 145.948 49.3383 146.416 49.3383H146.854Z" fill="#F34439"></path> <path d="M152.21 45.4277C152.41 45.4277 152.64 45.4392 152.901 45.4621C153.17 45.4851 153.439 45.5157 153.707 45.5539C153.976 45.5845 154.222 45.6189 154.444 45.6571C154.675 45.6953 154.851 45.7335 154.974 45.7718L153.431 46.8498C153.185 46.8421 152.955 46.8383 152.74 46.8383C152.525 46.8306 152.294 46.8268 152.049 46.8268C151.864 46.8268 151.703 46.8459 151.565 46.8842C151.427 46.9147 151.308 46.9797 151.208 47.0791C151.116 47.1709 151.031 47.3123 150.955 47.5034C150.885 47.6946 150.828 47.9468 150.782 48.2603C150.72 48.6884 150.682 49.0172 150.667 49.2465C150.659 49.4683 150.69 49.6173 150.759 49.6938C150.828 49.7702 150.947 49.8085 151.116 49.8085C151.292 49.7932 151.481 49.7205 151.68 49.5906C151.88 49.453 152.072 49.2733 152.256 49.0516C152.448 48.8299 152.621 48.5852 152.774 48.3176L153.12 48.9254C152.989 49.43 152.79 49.8658 152.521 50.2328C152.252 50.5998 151.93 50.8826 151.553 51.0814C151.177 51.2802 150.751 51.3949 150.275 51.4254C149.745 51.456 149.346 51.3528 149.077 51.1158C148.808 50.8788 148.643 50.5233 148.582 50.0493C148.528 49.5676 148.551 48.9828 148.651 48.2947C148.751 47.6296 148.9 47.1059 149.1 46.7236C149.3 46.3337 149.549 46.047 149.849 45.8635C150.148 45.68 150.494 45.5615 150.885 45.508C151.285 45.4545 151.726 45.4277 152.21 45.4277ZM152.924 45.6112L154.974 45.7718L154.191 51.2878H152.579V50.0264L152.314 49.8543L152.924 45.6112Z" fill="#F34439"></path> <path d="M157.791 45.5883L157.848 46.8153L158.044 46.9644L157.445 51.2878H155.36L156.167 45.5883H157.791ZM160.002 45.4277C160.547 45.4277 160.947 45.573 161.2 45.8635C161.461 46.1464 161.553 46.5439 161.476 47.0562L160.877 51.2878H158.873L159.38 47.641C159.411 47.4652 159.399 47.3467 159.346 47.2855C159.292 47.2244 159.196 47.1938 159.058 47.1938C158.95 47.1938 158.831 47.2167 158.701 47.2626C158.578 47.3008 158.432 47.3735 158.263 47.4805C158.102 47.5875 157.906 47.7328 157.675 47.9163L157.353 46.9988C157.837 46.4484 158.282 46.0508 158.689 45.8062C159.096 45.5539 159.534 45.4277 160.002 45.4277ZM163.48 45.4277C164.041 45.4277 164.448 45.573 164.701 45.8635C164.955 46.154 165.047 46.5516 164.978 47.0562L164.379 51.2878H162.306L162.812 47.641C162.835 47.4576 162.816 47.339 162.755 47.2855C162.693 47.2244 162.605 47.1938 162.49 47.1938C162.39 47.1938 162.279 47.2167 162.156 47.2626C162.033 47.3008 161.891 47.3735 161.73 47.4805C161.568 47.5799 161.38 47.7251 161.165 47.9163L160.831 46.9988C161.315 46.4484 161.76 46.0508 162.167 45.8062C162.574 45.5539 163.012 45.4277 163.48 45.4277Z" fill="#F34439"></path> </svg> 