<svg width="76" height="50" viewBox="0 0 76 50" fill="none" xmlns="http://www.w3.org/2000/svg">
<mask id="mask0_1762_25" style="mask-type:luminance" maskUnits="userSpaceOnUse" x="0" y="0" width="76" height="50">
<path d="M75.7295 0H0V50H75.7295V0Z" fill="white"/>
</mask>
<g mask="url(#mask0_1762_25)">
<path d="M0 16.9175L8.14102 20.4889V28.4889L0 24.9175V16.9175Z" fill="#0E4FA1"/>
<path d="M33.9391 8.25L42.0801 11.8214V19.8214L33.9391 16.25V8.25Z" fill="#0E4FA1"/>
<path d="M33.9391 19.2144L42.0801 22.7858V30.7858L33.9391 27.2144V19.2144Z" fill="#0E4FA1"/>
<path d="M33.9391 30.1787L42.0801 33.7501V41.7501L33.9391 38.1787V30.1787Z" fill="#0E4FA1"/>
<path d="M67.5884 0L75.7294 3.57143V11.5714L67.5884 8V0Z" fill="#0E4FA1"/>
<path d="M67.5884 10.9644L75.7294 14.5358V22.5358L67.5884 18.9644V10.9644Z" fill="#0E4FA1"/>
<path d="M67.5884 21.9287L75.7294 25.5001V33.5001L67.5884 29.9287V21.9287Z" fill="#0E4FA1"/>
<path d="M8.93701 20.0714L33.9571 8.25V16.25L8.93701 28.0714V20.0714Z" fill="#189DD0"/>
<path d="M8.93701 31.0358L33.9571 19.2144V27.2144L8.93701 39.0358V31.0358Z" fill="#189DD0"/>
<path d="M8.93701 42.0001L33.9571 30.1787V38.1787L8.93701 50.0001V42.0001Z" fill="#189DD0"/>
<path d="M42.5867 11.8214L67.6067 0V8L42.5867 19.8214V11.8214Z" fill="#189DD0"/>
<path d="M42.5867 22.7858L67.6067 10.9644V18.9644L42.5867 30.7858V22.7858Z" fill="#189DD0"/>
<path d="M42.5867 33.7501L67.6067 21.9287V29.9287L42.5867 41.7501V33.7501Z" fill="#189DD0"/>
<path d="M0 27.5L8.14102 31.0714V50L0 46.4286V27.5Z" fill="#0E4FA1"/>
</g>
</svg>
