<?xml version="1.0" encoding="UTF-8"?>
<!DOCTYPE svg PUBLIC "-//W3C//DTD SVG 1.1//EN" "http://www.w3.org/Graphics/SVG/1.1/DTD/svg11.dtd">
<svg xmlns="http://www.w3.org/2000/svg" xmlSpace="preserve" width="162px" height="64px" version="1.1"
    style="shape-rendering:geometricPrecision; text-rendering:geometricPrecision; image-rendering:optimizeQuality; fill-rule:evenodd; clip-rule:evenodd"
    viewBox="0 0 162 64" xmlnsXlink="http://www.w3.org/1999/xlink" xmlnsXodm="http://www.corel.com/coreldraw/odm/2003">
    <g id="Layer_x0020_1">
        <path style="fill:#FF0D15;"
            d="M27.69 23.03l-0.14 -6.96 4.02 0 0.04 3.9 -3.92 3.06zm6.77 -4.99l-0.23 -6.77 -9.67 -0.01 0.08 13.72 -3.09 2.47 -12.07 0 -0.05 3.4 15.29 0 22.18 -16.36c1.83,0.72 19.41,14.35 20.92,14.74l0 -8.74 -18.08 -13.61 -15.28 11.16z" />
        <path style="fill:#030303;"
            d="M159 33.48l-5.77 0.04c-1.28,1.97 -2.78,10.21 -3.93,11.6 -2.23,-5.55 0.26,-11.63 -5.46,-11.65 -1.87,0 -3.88,-0.05 -5.73,0.05l-3.1 10.45c-0.61,2.04 -2.95,8.81 -2.98,10.33 7.41,0.08 5.73,1.15 7.49,-4.76 0.89,-2.98 1.84,-6.52 2.86,-9.35 0.78,1.57 2.43,13.24 2.99,13.87 0.29,0.21 -0.02,0.08 0.48,0.2l6.97 0.04 6.18 -20.82z" />
        <path style="fill:#030303;"
            d="M71.42 33.49c-5.89,-0.01 -5.78,-0.52 -6.31,1.28 -0.57,1.92 -2.92,9.71 -3.36,10.36 -0.69,-1.52 -1.41,-7.37 -1.9,-9.38 -0.42,-1.75 -1.77,-2.27 -3.55,-2.28 -1.68,0 -4.13,-0.18 -5.69,0.12 -0.66,1.42 -6.11,19.54 -6.16,20.72l5.95 -0.05c1.03,-1.78 3.49,-12.48 4.51,-14.09l2.89 14.14 7.44 -0.03 6.18 -20.79z" />
        <path style="fill:#030303;"
            d="M125.16 47.05c-0.68,1.69 -1.1,2.75 -3.05,3.21 -1.6,0.38 -3.82,0.53 -4.46,-0.75 -0.55,-1.13 1.59,-7.41 2.1,-8.8 0.63,-1.71 0.62,-2.69 2.53,-3.15 7.13,-1.4 4.49,5.49 2.88,9.49zm8.33 -8.66c1.03,-6.23 -11.45,-5.89 -15.57,-4.09 -2.92,1.27 -3.53,3.14 -4.63,6.32 -1.17,3.4 -3.85,10.52 -0.49,12.66 3.34,2.11 11.52,1.58 14.14,0.32 2.77,-1.32 3.31,-3.24 4.44,-6.48 0.94,-2.67 1.62,-5.8 2.11,-8.73z" />
        <path style="fill:#030303;"
            d="M98.09 44.14l2.3 -6.87c1.35,0 3.67,-0.41 4.63,0.43 0.85,0.74 0.76,2.71 0.2,3.77 -1.55,2.94 -3.28,2.69 -7.13,2.67zm8.45 3.64c4.09,-2.49 6.53,-8.65 4.5,-11.96 -1.17,-1.9 -3.65,-2.35 -6.72,-2.34 -2.86,0.01 -6.15,-0.15 -8.95,0.04 -0.6,0.84 -6.25,19.68 -6.32,20.78l5.88 -0.02 1.75 -5.86 3.93 0.03 2.01 5.85 5.83 -0.02c-0.1,-1.75 -1.92,-4.75 -1.91,-6.5z" />
        <path style="fill:#030303;"
            d="M46.69 33.37c-3.85,0.05 -11.4,-0.43 -14.74,0.32 -3.56,0.8 -7.22,4.27 -8.07,7.24 1.5,-0.5 1.81,-1.24 4.04,-1.65 -1.1,3.9 -4.19,9.57 -1.57,13.55 1.95,2.97 11.3,2.02 14.67,1.48l1.41 -5.11c-2.92,0.27 -9.78,0.7 -10.3,-0.37 -0.52,-1.07 0.39,-2.56 0.58,-3.29l7.8 -0.03 1.16 -3.93 -7.72 -0.06c0.19,-0.54 0.9,-1.96 1.13,-2.29 1.1,-1.58 5.91,-0.33 10.26,-0.85l1.35 -5.01z" />
        <path style="fill:#030303;"
            d="M16.09 42.98c1.74,-1.88 9.91,-8.46 10.5,-9.56 -1.13,-0.07 -4.21,-0.17 -5.22,-0.03l-8.06 6.94 1.99 -6.95 -5.96 0.02c-0.58,1.29 -6.33,20.07 -6.34,20.9 1.47,0.01 2.93,-0.01 4.4,0.01 2.17,0.04 1.65,-0.03 2.27,-2.08 0.4,-1.32 1.61,-5.7 2.14,-6.41l3.62 8.48 6.02 -0.06 -5.36 -11.26z" />
        <path style="fill:#030303;"
            d="M90.35 38.46c0.83,-0.62 1.5,-3.83 1.69,-4.98 -3.32,0.01 -11.66,-0.42 -14.28,0.2 -4.02,0.95 -7.12,5.79 -7.03,7.26 1.17,-0.48 0.66,-1.37 3.39,-2.19 1.29,-0.39 3.56,-0.41 5.03,-0.23l-4.75 15.78 6.15 0.02c1.54,-4.17 3.23,-12.66 5.02,-15.86l4.78 0z" />
        <path style="fill:#FF0D15;"
            d="M70.58 25.27l1.79 0c0.11,0 0.21,-0.03 0.3,-0.08 0.08,-0.05 0.15,-0.12 0.19,-0.21 0.05,-0.1 0.07,-0.21 0.07,-0.34l0 -0.37c0,-0.13 -0.02,-0.25 -0.06,-0.34 -0.05,-0.1 -0.11,-0.18 -0.2,-0.23 -0.09,-0.05 -0.19,-0.07 -0.3,-0.07l-1.79 0 0 -1.17 1.8 0c0.37,0 0.69,0.07 0.96,0.21 0.27,0.15 0.48,0.35 0.63,0.62 0.14,0.27 0.22,0.58 0.22,0.95l0 0.39c0,0.37 -0.08,0.69 -0.22,0.96 -0.15,0.27 -0.36,0.48 -0.63,0.63 -0.27,0.14 -0.59,0.22 -0.96,0.22l-1.8 0 0 -1.17zm-0.51 -2.81l1.2 0 0 6.77 -1.2 0 0 -6.77zm1.69 3.77l1.21 -0.22 1.45 3.22 -1.39 0 -1.27 -3zm4.17 -3.77l1.22 0 0 6.77 -1.22 0 0 -6.77zm0.49 5.59l3.28 0 0 1.18 -3.28 0 0 -1.18zm0 -2.77l2.91 0 0 1.18 -2.91 0 0 -1.18zm0 -2.82l3.28 0 0 1.18 -3.28 0 0 -1.18zm6.38 0l0.81 0 2.1 6.77 -1.26 0 -1.25 -4.53 -1.25 4.53 -1.25 0 2.1 -6.77zm-0.94 4.54l2.71 0 0 1.16 -2.71 0 0 -1.16zm5.12 -4.54l1.22 0 0 6.77 -1.22 0 0 -6.77zm0.52 5.6l3.21 0 0 1.17 -3.21 0 0 -1.17zm6.81 -5.6l1.22 0 0 6.77 -1.22 0 0 -6.77zm0.49 5.59l3.28 0 0 1.18 -3.28 0 0 -1.18zm0 -2.77l2.91 0 0 1.18 -2.91 0 0 -1.18zm0 -2.82l3.28 0 0 1.18 -3.28 0 0 -1.18zm6.63 6.84c-0.38,0 -0.72,-0.06 -1.01,-0.17 -0.28,-0.12 -0.52,-0.28 -0.71,-0.5 -0.19,-0.23 -0.32,-0.5 -0.4,-0.83l0 0 1.13 -0.51 0 0c0.09,0.28 0.22,0.48 0.4,0.62 0.18,0.14 0.4,0.21 0.66,0.21 0.27,0 0.48,-0.06 0.63,-0.18 0.14,-0.11 0.22,-0.28 0.22,-0.49l0 -0.3c0,-0.15 -0.05,-0.28 -0.13,-0.38 -0.09,-0.09 -0.2,-0.17 -0.34,-0.23 -0.14,-0.06 -0.32,-0.12 -0.55,-0.2 -0.01,0 -0.02,0 -0.03,0 0,0 -0.01,-0.01 -0.02,-0.01l-0.05 -0.02c-0.37,-0.11 -0.67,-0.22 -0.91,-0.34 -0.23,-0.12 -0.43,-0.3 -0.6,-0.54 -0.16,-0.25 -0.25,-0.58 -0.25,-1l0 -0.17c0,-0.4 0.08,-0.73 0.25,-1.01 0.16,-0.28 0.4,-0.49 0.71,-0.64 0.31,-0.14 0.69,-0.22 1.13,-0.22 0.34,0 0.63,0.06 0.89,0.17 0.25,0.11 0.47,0.27 0.64,0.48 0.17,0.21 0.3,0.48 0.38,0.8l0 0 -1.07 0.51 0 0c-0.09,-0.26 -0.21,-0.45 -0.37,-0.59 -0.15,-0.13 -0.33,-0.2 -0.54,-0.2 -0.26,0 -0.45,0.06 -0.6,0.16 -0.14,0.11 -0.21,0.26 -0.21,0.46l0 0.22c0,0.17 0.05,0.31 0.14,0.41 0.09,0.11 0.21,0.19 0.34,0.25 0.14,0.07 0.33,0.14 0.58,0.21 0.01,0 0.03,0.01 0.05,0.01 0.02,0.01 0.04,0.02 0.06,0.03 0.01,0 0.03,0 0.04,0.01 0.01,0 0.03,0.01 0.04,0.01 0.34,0.11 0.62,0.22 0.84,0.34 0.22,0.12 0.41,0.3 0.56,0.54 0.15,0.23 0.22,0.55 0.22,0.94l0 0.29c0,0.39 -0.08,0.72 -0.25,1 -0.16,0.28 -0.4,0.49 -0.72,0.64 -0.32,0.15 -0.7,0.22 -1.15,0.22zm4.51 -6.28l1.21 0 0 6.21 -1.21 0 0 -6.21zm-1.48 -0.56l4.17 0 0 1.17 -4.17 0 0 -1.17zm6.62 0l0.81 0 2.1 6.77 -1.26 0 -1.25 -4.53 -1.24 4.53 -1.26 0 2.1 -6.77zm-0.93 4.54l2.7 0 0 1.16 -2.7 0 0 -1.16zm5.71 -3.98l1.21 0 0 6.21 -1.21 0 0 -6.21zm-1.48 -0.56l4.17 0 0 1.17 -4.17 0 0 -1.17zm5.43 0l1.21 0 0 6.77 -1.21 0 0 -6.77zm0.48 5.59l3.29 0 0 1.18 -3.29 0 0 -1.18zm0 -2.77l2.91 0 0 1.18 -2.91 0 0 -1.18zm0 -2.82l3.29 0 0 1.18 -3.29 0 0 -1.18zm8.62 0l0.81 0 2.1 6.77 -1.26 0 -1.25 -4.53 -1.24 4.53 -1.26 0 2.1 -6.77zm-0.93 4.54l2.7 0 0 1.16 -2.7 0 0 -1.16zm8.84 -1.49l0 1.67c0,0.43 -0.09,0.81 -0.26,1.12 -0.17,0.32 -0.4,0.57 -0.72,0.74 -0.31,0.17 -0.67,0.26 -1.09,0.26 -0.43,0 -0.8,-0.08 -1.12,-0.25 -0.31,-0.16 -0.56,-0.39 -0.73,-0.7 -0.17,-0.3 -0.25,-0.66 -0.25,-1.07l0 -2.75c0,-0.43 0.08,-0.81 0.25,-1.13 0.17,-0.32 0.41,-0.57 0.72,-0.75 0.31,-0.17 0.68,-0.26 1.1,-0.26 0.41,0 0.77,0.08 1.06,0.24 0.29,0.16 0.52,0.39 0.69,0.7 0.16,0.31 0.26,0.7 0.29,1.18l0 0 -1.27 0 0 0c-0.01,-0.2 -0.06,-0.36 -0.12,-0.49 -0.07,-0.13 -0.16,-0.22 -0.27,-0.29 -0.11,-0.06 -0.23,-0.09 -0.38,-0.09 -0.16,0 -0.31,0.04 -0.43,0.11 -0.13,0.07 -0.22,0.18 -0.29,0.31 -0.07,0.14 -0.1,0.29 -0.1,0.47l0 2.75c0,0.16 0.03,0.29 0.1,0.41 0.07,0.12 0.17,0.21 0.3,0.27 0.13,0.06 0.28,0.09 0.45,0.09 0.17,0 0.32,-0.03 0.44,-0.1 0.13,-0.07 0.23,-0.16 0.3,-0.29 0.06,-0.13 0.1,-0.28 0.1,-0.46l0 -0.52 -0.8 0 0 -1.17 2.03 0zm1.6 -3.05l1.21 0 0 6.77 -1.21 0 0 -6.77zm0.48 5.59l3.29 0 0 1.18 -3.29 0 0 -1.18zm0 -2.77l2.91 0 0 1.18 -2.91 0 0 -1.18zm0 -2.82l3.29 0 0 1.18 -3.29 0 0 -1.18zm4.77 0l1.24 0 2.05 4.85 -0.12 0.15 0 -5 1.14 0 0 6.76 -1.25 0 -2.04 -4.68 0.12 -0.15 0 4.83 -1.14 0 0 -6.76zm8.03 6.84c-0.43,0 -0.79,-0.08 -1.1,-0.25 -0.3,-0.17 -0.53,-0.41 -0.69,-0.72 -0.17,-0.32 -0.25,-0.7 -0.25,-1.15l0 -2.66c0,-0.45 0.08,-0.83 0.25,-1.15 0.16,-0.32 0.39,-0.56 0.69,-0.73 0.31,-0.16 0.67,-0.25 1.1,-0.25 0.42,0 0.78,0.09 1.07,0.25 0.29,0.17 0.51,0.43 0.67,0.76 0.16,0.34 0.25,0.77 0.29,1.3l0 0 -1.25 0 0 0c-0.02,-0.25 -0.06,-0.45 -0.12,-0.61 -0.07,-0.16 -0.15,-0.28 -0.26,-0.35 -0.11,-0.08 -0.24,-0.12 -0.4,-0.12 -0.16,0 -0.3,0.03 -0.42,0.1 -0.12,0.07 -0.21,0.17 -0.27,0.31 -0.06,0.13 -0.09,0.3 -0.09,0.49l0 2.66c0,0.19 0.03,0.35 0.09,0.49 0.06,0.13 0.15,0.23 0.27,0.3 0.12,0.07 0.26,0.1 0.42,0.1 0.16,0 0.29,-0.03 0.4,-0.11 0.11,-0.08 0.2,-0.2 0.26,-0.36 0.06,-0.16 0.1,-0.36 0.12,-0.6l0 0 1.25 0 0 0c-0.04,0.52 -0.13,0.95 -0.29,1.29 -0.16,0.34 -0.38,0.59 -0.67,0.76 -0.29,0.16 -0.65,0.25 -1.07,0.25zm5.66 -2.67l0 2.6 -1.21 0 0 -2.6 -1.63 -4.17 1.26 0 0.97 2.86 0.94 -2.86 1.28 0 -1.61 4.17z" />
    </g>
</svg>