<?xml version="1.0" encoding="UTF-8"?>
<svg width="96px" height="62px" viewBox="0 0 96 62" version="1.1" xmlns="http://www.w3.org/2000/svg" xmlns:xlink="http://www.w3.org/1999/xlink">
    <title>Logo</title>
    <desc>Created with Sketch.</desc>
    <g id="Logo" stroke="none" stroke-width="1" fill="none" fill-rule="evenodd">
        <g id="mm-logo-(1)" transform="translate(0.000000, 6.000000)">
            <path d="M16.5007324,3.30771831 C16.5886197,3.21397183 16.6783099,3.12202817 16.7684507,3.03143662 C18.5708169,1.22366197 20.7761127,0.312338028 23.328,0.312338028 C25.8771831,0.312338028 28.0784225,1.22861972 29.880338,3.03053521 C31.684507,4.83470423 32.5980845,7.03053521 32.5980845,9.58287324 L32.5980845,20.1672113 C32.5980845,20.8347042 32.347493,21.4224225 31.8783099,21.895662 C31.4037183,22.3752113 30.8132958,22.6199437 30.1390423,22.6199437 C29.4625352,22.6199437 28.868507,22.3761127 28.4078873,21.8979155 C27.9341972,21.4242254 27.6858592,20.8374085 27.6858592,20.1672113 L27.6858592,18.0561127 C27.6858592,16.8459718 27.2536338,15.8381972 26.3995493,14.9841127 C25.5454648,14.1304789 24.5376901,13.6982535 23.328,13.6982535 C22.107493,13.6982535 21.0934085,14.119662 20.2321127,14.983662 C19.3816338,15.8363944 18.963831,16.8513803 18.963831,18.0561127 L18.963831,20.1672113 C18.963831,20.8374085 18.715493,21.4242254 18.2418028,21.8979155 C17.7631549,22.3765634 17.1686761,22.6199437 16.492169,22.6199437 C15.8228732,22.6199437 15.2297465,22.3711549 14.7587606,21.895662 C14.2882254,21.4206197 14.0389859,20.836507 14.0389859,20.1672113 L14.0389859,18.0561127 C14.0389859,16.8500282 13.6126197,15.8368451 12.7639437,14.9827606 C11.9058028,14.1192113 10.8926197,13.6982535 9.6748169,13.6982535 C8.46197183,13.6982535 7.45960563,14.1282254 6.60326761,14.9841127 C5.7491831,15.8381972 5.31695775,16.8459718 5.31695775,18.0561127 L5.31695775,20.1672113 C5.31695775,20.8329014 5.06456338,21.4152113 4.60214085,21.8911549 C4.13070423,22.375662 3.53307042,22.6199437 2.85791549,22.6199437 C2.18726761,22.6199437 1.60090141,22.3720563 1.12676056,21.8979155 C0.653070423,21.4242254 0.404732394,20.8374085 0.404732394,20.1672113 L0.404732394,9.58287324 C0.404732394,7.03278873 1.31335211,4.83335211 3.11661972,3.03053521 C4.92259155,1.22456338 7.12067606,0.312338028 9.6748169,0.312338028 C12.2294085,0.312338028 14.427493,1.22456338 16.2334648,3.03053521 C16.324507,3.12112676 16.4132958,3.21352113 16.5007324,3.30771831 Z M53.1858028,16.2379718 C53.7041127,15.8372958 54.3112113,15.6529577 54.9660845,15.7219155 C55.6263662,15.7917746 56.1883944,16.0901408 56.6147606,16.5989859 C57.0442817,17.112338 57.2308732,17.7289014 57.179493,18.3945915 L57.1785915,18.4049577 L57.1776901,18.4148732 C57.1082817,19.072 56.8135211,19.6290704 56.3091831,20.0549859 L56.2884507,20.0725634 L56.2663662,20.088338 C55.1391549,20.9041127 53.8979155,21.5274366 52.576,21.9605634 C51.1869296,22.4157746 49.7397183,22.6199437 48.2794366,22.6199437 C45.1461408,22.6199437 42.4247887,21.560338 40.2050704,19.3406197 C38.0376338,17.1731831 36.9446761,14.5316056 36.9446761,11.4663662 C36.9446761,8.3943662 38.0313239,5.75008451 40.2055211,3.57904225 C42.3797183,1.408 45.0199437,0.312338028 48.0923944,0.312338028 C51.1661972,0.312338028 53.8136338,1.40394366 55.9860282,3.57949296 C58.156169,5.75323944 59.2459718,8.3943662 59.2459718,11.4663662 C59.2459718,12.135662 58.9971831,12.728338 58.5216901,13.1997746 C58.0466479,13.6703099 57.4625352,13.9195493 56.7927887,13.9195493 L42.3526761,13.9195493 C42.6645634,14.6465352 43.1094085,15.2964507 43.6858592,15.8724507 C44.9509859,17.1380282 46.4982535,17.6887887 48.2794366,17.6887887 C49.1853521,17.6887887 50.1047887,17.5914366 50.9728451,17.3223662 C51.763831,17.0767324 52.5047887,16.708507 53.1858028,16.2379718 Z M81.7027606,21.9312676 C81.3570704,21.5828732 81.1348732,21.1731831 81.0406761,20.7157183 C79.1869296,22.0065352 77.0825915,22.660507 74.7402817,22.660507 C68.5498592,22.660507 63.5925634,17.6946479 63.5925634,11.5069296 C63.5925634,5.30253521 68.5340845,0.352901408 74.7402817,0.352901408 C80.9491831,0.352901408 85.8938592,5.29802817 85.8938592,11.5069296 L85.8938592,20.1888451 C85.8938592,20.8653521 85.6504789,21.4602817 85.171831,21.9384789 C84.6981408,22.412169 84.1113239,22.660507 83.4411268,22.660507 C82.7682254,22.660507 82.1678873,22.4189296 81.7027606,21.9312676 L81.7027606,21.9312676 Z" id="Fill-1" fill="#D8232A"></path>
            <path d="M90.7943662,2.78670423 C90.7943662,2.11650704 91.0427042,1.52338028 91.5163944,1.04923944 C91.9864789,0.57915493 92.5809577,0.327661972 93.2475493,0.327661972 C93.9209014,0.327661972 94.5185352,0.575098592 94.9949296,1.04698592 C95.4708732,1.51842254 95.7201127,2.11876056 95.7192113,2.78670423 L95.6687324,46.8615211 C95.667831,47.5290141 95.419493,48.1194366 94.9467042,48.5926761 C94.4689577,49.0699718 93.8731268,49.3147042 93.1966197,49.3147042 C92.5277746,49.3147042 91.9332958,49.0641127 91.463662,48.5904225 C90.9940282,48.1167324 90.7429859,47.5312676 90.7438873,46.8615211 L90.7943662,2.78670423" id="Fill-2" fill="#E7792B"></path>
            <path d="M16.5007324,29.9614648 C16.5886197,29.868169 16.6783099,29.7762254 16.7684507,29.6851831 C18.5708169,27.8774085 20.7761127,26.9665352 23.328,26.9665352 C25.8771831,26.9665352 28.0784225,27.8823662 29.880338,29.6842817 C31.684507,31.4884507 32.5980845,33.6842817 32.5980845,36.2366197 L32.5980845,46.8209577 C32.5980845,47.4884507 32.347493,48.0766197 31.8783099,48.5498592 C31.4037183,49.0289577 30.8132958,49.2741408 30.1390423,49.2741408 C29.4625352,49.2741408 28.868507,49.0303099 28.4078873,48.5521127 C27.9341972,48.0779718 27.6858592,47.4916056 27.6858592,46.8209577 L27.6858592,44.7098592 C27.6858592,43.500169 27.2536338,42.4923944 26.3995493,41.6383099 C25.5454648,40.7842254 24.5376901,40.352 23.328,40.352 C22.107493,40.352 21.0934085,40.7734085 20.2321127,41.6374085 C19.3816338,42.4905915 18.963831,43.5051268 18.963831,44.7098592 L18.963831,46.8209577 C18.963831,47.4916056 18.715493,48.0779718 18.2418028,48.5521127 C17.7631549,49.0307606 17.1686761,49.2741408 16.492169,49.2741408 C15.8228732,49.2741408 15.2297465,49.0249014 14.7587606,48.5498592 C14.2882254,48.0748169 14.0389859,47.4907042 14.0389859,46.8209577 L14.0389859,44.7098592 C14.0389859,43.5042254 13.6126197,42.4910423 12.7639437,41.636507 C11.9058028,40.7734085 10.8926197,40.352 9.6748169,40.352 C8.46197183,40.352 7.45960563,40.7819718 6.60326761,41.6383099 C5.7491831,42.4923944 5.31695775,43.500169 5.31695775,44.7098592 L5.31695775,46.8209577 C5.31695775,47.4870986 5.06456338,48.0694085 4.60214085,48.5449014 C4.13070423,49.0294085 3.53307042,49.2741408 2.85791549,49.2741408 C2.18726761,49.2741408 1.60090141,49.0258028 1.12676056,48.5521127 C0.653070423,48.0779718 0.404732394,47.4916056 0.404732394,46.8209577 L0.404732394,36.2366197 C0.404732394,33.6865352 1.31335211,31.4875493 3.11661972,29.6842817 C4.92259155,27.8787606 7.12067606,26.9665352 9.6748169,26.9665352 C12.2294085,26.9665352 14.427493,27.8783099 16.2334648,29.6842817 C16.324507,29.7753239 16.4132958,29.8677183 16.5007324,29.9614648 Z M53.1858028,42.892169 C54.2535211,42.0660282 55.7453521,42.215662 56.6147606,43.2531831 C57.4553239,44.2569014 57.3719437,45.9456901 56.2663662,46.7425352 C55.1391549,47.5583099 53.8979155,48.1816338 52.576,48.6147606 C48.2632113,50.0277183 43.4848451,49.2745915 40.2050704,45.9948169 C38.0376338,43.8269296 36.9446761,41.1858028 36.9446761,38.1201127 C36.9446761,31.916169 41.8861972,26.9665352 48.0923944,26.9665352 C54.3012958,26.9665352 59.2459718,31.9112113 59.2459718,38.1201127 C59.2459718,39.4726761 58.1449014,40.5732958 56.7927887,40.5732958 L42.3526761,40.5732958 C42.6645634,41.3002817 43.1094085,41.9501972 43.6858592,42.5266479 C45.5761127,44.4169014 48.4935211,44.7459155 50.9728451,43.9761127 C51.763831,43.7304789 52.5047887,43.3627042 53.1858028,42.892169 Z M81.7027606,48.5854648 C81.3570704,48.2370704 81.1348732,47.8273803 81.0406761,47.3694648 C79.1869296,48.6602817 77.0825915,49.3147042 74.7402817,49.3147042 C68.5498592,49.3147042 63.5925634,44.3488451 63.5925634,38.1606761 C63.5925634,31.9567324 68.5340845,27.0070986 74.7402817,27.0070986 C80.9491831,27.0070986 85.8938592,31.9517746 85.8938592,38.1606761 L85.8938592,46.8430423 C85.8938592,47.5190986 85.6504789,48.1140282 85.171831,48.5926761 C84.6981408,49.0663662 84.1113239,49.3147042 83.4411268,49.3147042 C82.7682254,49.3147042 82.1678873,49.0731268 81.7027606,48.5854648 L81.7027606,48.5854648 Z" id="Fill-3" fill="#E7792B"></path>
        </g>
    </g>
</svg>