<svg width="208" height="65" viewBox="0 0 208 65" fill="none" xmlns="http://www.w3.org/2000/svg">
<path d="M20.9511 41.8785C20.9511 42.9757 20.8804 43.9116 20.739 44.6861C20.6133 45.4606 20.4327 46.0899 20.197 46.574C19.9613 47.0581 19.6707 47.4131 19.325 47.639C18.9951 47.8649 18.6337 47.9778 18.241 47.9778C17.9424 47.9778 17.6125 47.8729 17.2512 47.6632C16.8898 47.4534 16.5442 47.1952 16.2142 46.8887C15.9 46.5821 15.6329 46.2674 15.4129 45.9447C15.2087 45.622 15.1066 45.3396 15.1066 45.0976C15.1066 44.9362 15.1223 44.8313 15.1537 44.7829C15.2008 44.7507 15.2558 44.7345 15.3187 44.7345C15.3972 44.7507 15.4836 44.7749 15.5779 44.8071C15.6879 44.8394 15.8057 44.8555 15.9314 44.8555C16.3713 44.8555 16.6856 44.5732 16.8741 44.0084C17.0783 43.4275 17.1805 42.5078 17.1805 41.2492V13.8749C15.6879 14.004 14.2503 14.2783 12.8677 14.6979C11.4852 15.1013 10.2675 15.7144 9.21489 16.5373C8.16224 17.3603 7.3217 18.4333 6.69325 19.7564C6.0648 21.0634 5.75058 22.677 5.75058 24.5971C5.75058 25.4523 5.82914 26.2268 5.98625 26.9207C6.15907 27.5984 6.37903 28.2115 6.64612 28.7602C6.91321 29.3088 7.20386 29.7928 7.51809 30.2124C7.84802 30.6319 8.1701 31.003 8.48432 31.3257C8.75141 31.2451 8.93995 31.2773 9.04993 31.4225C9.1599 31.5678 9.21489 31.7695 9.21489 32.0276C9.21489 32.3504 9.14419 32.6892 9.00279 33.0442C8.8771 33.383 8.70428 33.6977 8.48432 33.9881C8.26437 34.2624 8.01299 34.4964 7.73019 34.69C7.4631 34.8675 7.18815 34.9563 6.90535 34.9563C6.77966 34.9563 6.65397 34.9401 6.52828 34.9079C6.41831 34.8756 6.30047 34.803 6.17478 34.69C5.82914 34.4319 5.41279 34.0123 4.92575 33.4314C4.4387 32.8344 3.97522 32.1003 3.53531 31.2289C3.09539 30.3576 2.71833 29.3652 2.4041 28.2519C2.08988 27.1224 1.93277 25.9041 1.93277 24.5971C1.93277 22.209 2.36483 20.1033 3.22894 18.28C4.09305 16.4567 5.29496 14.9318 6.83465 13.7055C8.37435 12.4631 10.1968 11.5272 12.3021 10.8979C14.4231 10.2686 16.7405 9.95396 19.2543 9.95396C19.8356 9.95396 20.5348 9.96203 21.3518 9.97816C22.1845 9.97816 23.0093 9.98623 23.8263 10.0024C24.6433 10.0185 25.3738 10.0346 26.018 10.0508C26.6779 10.0508 27.1256 10.0508 27.3613 10.0508C27.5655 10.0508 27.7305 10.0346 27.8562 10.0024C27.9976 9.95396 28.1076 9.90555 28.1861 9.85714C28.2804 9.80874 28.3511 9.7684 28.3982 9.73612C28.4454 9.68772 28.4846 9.66351 28.5161 9.66351C28.5946 9.66351 28.6653 9.71999 28.7282 9.83294C28.8067 9.92975 28.8696 10.0588 28.9167 10.2202C28.9795 10.3654 29.0267 10.5348 29.0581 10.7285C29.0895 10.9221 29.1052 11.1157 29.1052 11.3094C29.1052 11.5998 29.0659 11.9064 28.9874 12.2291C28.9088 12.5357 28.791 12.818 28.6339 13.0762C28.4768 13.3183 28.2804 13.52 28.0447 13.6813C27.8091 13.8427 27.5341 13.9233 27.2199 13.9233C27.0471 13.9233 26.725 13.9233 26.2536 13.9233C25.798 13.9072 25.2717 13.8911 24.6747 13.8749C24.0777 13.8588 23.4492 13.8427 22.7893 13.8265C22.1295 13.8104 21.5167 13.7943 20.9511 13.7781V41.8785Z" fill="#550098"/>
<path d="M7.16261 34.9373C6.93523 34.9941 4.85387 35.017 4.66138 34.9373L6.30992 34.0277C6.30992 34.0277 7.39 34.8804 7.16261 34.9373Z" fill="#550098"/>
<path d="M18.7592 47.8982C18.4915 48.0041 17.9806 48.0592 16.3717 48.1256L16.2012 47.1024L17.3949 46.7044L18.8161 47.2729L18.7592 47.8982Z" fill="#550098"/>
<path d="M28.7073 9.81129C28.6233 9.60329 28.2844 9.51796 26.8086 9.47021L26.9451 10.2661C27.1156 10.3229 27.4681 10.448 27.5135 10.4934C27.559 10.5389 28.3283 10.0576 28.7073 9.81129Z" fill="#550098"/>
<path d="M19.1775 41.972C19.1775 43.079 19.1062 44.0232 18.9636 44.8046C18.8369 45.586 18.6547 46.2209 18.4171 46.7093C18.1794 47.1977 17.8863 47.5558 17.5378 47.7837C17.2051 48.0116 16.8407 48.1256 16.4447 48.1256C16.1436 48.1256 15.811 48.0198 15.4466 47.8081C15.0822 47.5965 14.7337 47.336 14.401 47.0267C14.0841 46.7174 13.8148 46.4 13.593 46.0744C13.387 45.7488 13.2841 45.4639 13.2841 45.2197C13.2841 45.0569 13.2999 44.9511 13.3316 44.9023C13.3791 44.8697 13.4346 44.8534 13.4979 44.8534C13.5771 44.8697 13.6643 44.8941 13.7593 44.9267C13.8702 44.9593 13.989 44.9755 14.1158 44.9755C14.5594 44.9755 14.8762 44.6906 15.0663 44.1209C15.2723 43.5348 15.3753 42.6069 15.3753 41.3371V13.7191C13.8702 13.8494 12.4206 14.1261 11.0265 14.5494C9.63232 14.9564 8.40452 15.575 7.34306 16.4052C6.28161 17.2355 5.43402 18.3181 4.80032 19.653C4.16661 20.9716 3.84976 22.5995 3.84976 24.5368C3.84976 25.3996 3.92897 26.181 4.0874 26.881C4.26167 27.5647 4.48347 28.1834 4.75279 28.7369C5.02212 29.2904 5.3152 29.7787 5.63206 30.202C5.96475 30.6253 6.28953 30.9997 6.60638 31.3253C6.8757 31.2439 7.06582 31.2764 7.17671 31.423C7.28761 31.5695 7.34306 31.773 7.34306 32.0334C7.34306 32.359 7.27177 32.7009 7.12919 33.059C7.00245 33.4009 6.82818 33.7183 6.60638 34.0114C6.38458 34.2881 6.1311 34.5242 5.84593 34.7195C5.57661 34.8986 5.29936 34.9881 5.01419 34.9881C4.88745 34.9881 4.76071 34.9719 4.63397 34.9393C4.52307 34.9067 4.40425 34.8335 4.27751 34.7195C3.92897 34.4591 3.50914 34.0358 3.01802 33.4497C2.5269 32.8474 2.05954 32.1067 1.61595 31.2276C1.17236 30.3485 0.792132 29.3473 0.475279 28.2241C0.158426 27.0845 0 25.8554 0 24.5368C0 22.1274 0.435672 20.003 1.30702 18.1634C2.17836 16.3238 3.39032 14.7854 4.9429 13.5482C6.49548 12.2947 8.33323 11.3505 10.4561 10.7156C12.5949 10.0807 14.9317 9.76324 17.4665 9.76324C18.0527 9.76324 18.7577 9.77138 19.5815 9.78766C20.4212 9.78766 21.2529 9.7958 22.0767 9.81208C22.9005 9.82836 23.6372 9.84464 24.2868 9.86092C24.9522 9.86092 25.4037 9.86092 25.6413 9.86092C25.8473 9.86092 26.0136 9.84464 26.1404 9.81208C26.2829 9.76324 26.3938 9.71441 26.473 9.66557C26.5681 9.61673 26.6394 9.57603 26.6869 9.54347C26.7344 9.49463 26.7741 9.47021 26.8057 9.47021C26.885 9.47021 26.9562 9.52719 27.0196 9.64115C27.0988 9.73882 27.1622 9.86906 27.2097 10.0319C27.2731 10.1784 27.3206 10.3493 27.3523 10.5447C27.384 10.74 27.3998 10.9354 27.3998 11.1307C27.3998 11.4237 27.3602 11.733 27.281 12.0586C27.2018 12.3679 27.083 12.6528 26.9246 12.9133C26.7661 13.1575 26.5681 13.361 26.3305 13.5238C26.0928 13.6866 25.8156 13.768 25.4987 13.768C25.3245 13.768 24.9997 13.768 24.5244 13.768C24.065 13.7517 23.5342 13.7354 22.9322 13.7191C22.3302 13.7029 21.6965 13.6866 21.0311 13.6703C20.3657 13.654 19.7478 13.6377 19.1775 13.6215V41.972Z" fill="#7200CC"/>
<path d="M43.6846 44.0331H43.4694C43.2686 44.6055 42.9961 45.1492 42.6518 45.6644C42.3362 46.1509 41.9202 46.5945 41.4038 46.9952C40.9161 47.3959 40.3136 47.7107 39.5964 47.9397C38.9079 48.1686 38.1046 48.2831 37.1866 48.2831C34.8628 48.2831 33.0841 47.5247 31.8504 46.0078C30.6168 44.491 30 42.3302 30 39.5254V26.2035C30 25.7369 30.3783 25.3587 30.8449 25.3587H34.6634C35.13 25.3587 35.5083 25.7369 35.5083 26.2035V38.9674C35.5083 40.5128 35.8095 41.7006 36.412 42.5305C37.0144 43.3319 37.9755 43.7326 39.2952 43.7326C39.8403 43.7326 40.371 43.661 40.8874 43.5179C41.4325 43.3748 41.9059 43.1602 42.3075 42.874C42.7092 42.5591 43.0391 42.1871 43.2973 41.7578C43.5555 41.2999 43.6846 40.7704 43.6846 40.1694V26.2035C43.6846 25.7369 44.0628 25.3587 44.5295 25.3587H48.348C48.8146 25.3587 49.1928 25.7369 49.1928 26.2035V46.9231C49.1928 47.3897 48.8146 47.7679 48.348 47.7679H44.5295C44.0628 47.7679 43.6846 47.3897 43.6846 46.9231V44.0331Z" fill="#202020"/>
<path d="M61.2805 47.7679C59.387 47.7679 57.9382 47.2814 56.9341 46.3083C55.9587 45.3066 55.471 43.89 55.471 42.0583V29.7375H53.0023C52.5357 29.7375 52.1574 29.3592 52.1574 28.8926V26.2035C52.1574 25.7369 52.5357 25.3587 53.0023 25.3587H53.8788C54.7107 25.3587 55.2702 25.1726 55.5571 24.8006C55.8726 24.3999 56.0304 23.8132 56.0304 23.0405V20.0646C56.0304 19.598 56.4087 19.2197 56.8753 19.2197H60.1344C60.601 19.2197 60.9793 19.598 60.9793 20.0646V25.3587H64.739C65.2056 25.3587 65.5838 25.7369 65.5838 26.2035V28.8926C65.5838 29.3592 65.2056 29.7375 64.739 29.7375H60.9793V43.3891H64.3947C64.8613 43.3891 65.2396 43.7674 65.2396 44.234V46.9231C65.2396 47.3897 64.8613 47.7679 64.3947 47.7679H61.2805Z" fill="#202020"/>
<path d="M77.8103 48.2831C76.2037 48.2831 74.755 48.0112 73.464 47.4674C72.2016 46.9237 71.1115 46.1366 70.1934 45.1063C69.3041 44.076 68.6155 42.8453 68.1278 41.4144C67.6401 39.9547 67.3963 38.3234 67.3963 36.5204C67.3963 34.7173 67.6401 33.1003 68.1278 31.6693C68.6155 30.2383 69.3041 29.022 70.1934 28.0203C71.1115 26.99 72.2016 26.2029 73.464 25.6592C74.755 25.1154 76.2037 24.8435 77.8103 24.8435C79.4169 24.8435 80.8657 25.1154 82.1567 25.6592C83.4477 26.2029 84.5379 26.99 85.4272 28.0203C86.3453 29.022 87.0481 30.2383 87.5358 31.6693C88.0236 33.1003 88.2674 34.7173 88.2674 36.5204C88.2674 38.3234 88.0236 39.9547 87.5358 41.4144C87.0481 42.8453 86.3453 44.076 85.4272 45.1063C84.5379 46.1366 83.4477 46.9237 82.1567 47.4674C80.8657 48.0112 79.4169 48.2831 77.8103 48.2831ZM77.8103 43.8613C79.2735 43.8613 80.421 43.4177 81.253 42.5305C82.085 41.6433 82.5009 40.3411 82.5009 38.6239V34.4597C82.5009 32.7712 82.085 31.4833 81.253 30.5961C80.421 29.7089 79.2735 29.2653 77.8103 29.2653C76.3759 29.2653 75.2427 29.7089 74.4107 30.5961C73.5787 31.4833 73.1627 32.7712 73.1627 34.4597V38.6239C73.1627 40.3411 73.5787 41.6433 74.4107 42.5305C75.2427 43.4177 76.3759 43.8613 77.8103 43.8613Z" fill="#202020"/>
<path d="M92.7046 47.7679C92.2379 47.7679 91.8597 47.3897 91.8597 46.9231V26.2035C91.8597 25.7369 92.2379 25.3587 92.7046 25.3587H96.5231C96.9897 25.3587 97.368 25.7369 97.368 26.2035V29.9951H97.5831C97.7266 29.394 97.9417 28.8217 98.2286 28.2779C98.5442 27.7055 98.9458 27.2046 99.4335 26.7753C99.9213 26.346 100.495 26.0026 101.155 25.745C101.843 25.4875 102.632 25.3587 103.522 25.3587H103.882C104.348 25.3587 104.727 25.7369 104.727 26.2035V29.7083C104.727 30.1749 104.348 30.5532 103.882 30.5532H103.005C101.141 30.5532 99.7348 30.825 98.788 31.3688C97.8413 31.9126 97.368 32.7998 97.368 34.0305V46.9231C97.368 47.3897 96.9897 47.7679 96.5231 47.7679H92.7046Z" fill="#202020"/>
<path d="M108.652 47.7679C108.185 47.7679 107.807 47.3897 107.807 46.9231V18.6479C107.807 18.1813 108.185 17.803 108.652 17.803H121.319C122.696 17.803 123.93 18.032 125.02 18.4899C126.139 18.9192 127.086 19.5488 127.86 20.3788C128.635 21.1802 129.223 22.1532 129.625 23.298C130.026 24.4428 130.227 25.7021 130.227 27.0758C130.227 28.4782 130.026 29.7518 129.625 30.8966C129.223 32.0128 128.635 32.9858 127.86 33.8158C127.086 34.6172 126.139 35.2468 125.02 35.7047C123.93 36.134 122.696 36.3487 121.319 36.3487H113.487V46.9231C113.487 47.3897 113.109 47.7679 112.642 47.7679H108.652ZM113.487 31.4547H120.803C121.893 31.4547 122.754 31.1685 123.385 30.5961C124.016 29.9951 124.332 29.1508 124.332 28.0632V26.0885C124.332 25.0009 124.016 24.1709 123.385 23.5985C122.754 23.0262 121.893 22.74 120.803 22.74H113.487V31.4547Z" fill="#7200CC"/>
<path d="M139.248 47.7679C137.355 47.7679 135.963 47.2957 135.074 46.3513C134.184 45.4068 133.74 44.076 133.74 42.3588V16.8449C133.74 16.3783 134.118 16 134.585 16H138.403C138.87 16 139.248 16.3783 139.248 16.8449V43.3891H141.372C141.839 43.3891 142.217 43.7674 142.217 44.234V46.9231C142.217 47.3897 141.839 47.7679 141.372 47.7679H139.248Z" fill="#7200CC"/>
<path d="M161.623 47.7679C160.418 47.7679 159.457 47.4245 158.74 46.7376C158.051 46.0221 157.621 45.0777 157.449 43.9043H157.191C156.818 45.3639 156.057 46.4657 154.91 47.2099C153.762 47.9253 152.342 48.2831 150.65 48.2831C148.354 48.2831 146.59 47.6821 145.356 46.4801C144.123 45.278 143.506 43.6753 143.506 41.6719C143.506 39.3537 144.338 37.6365 146.002 36.5204C147.666 35.3756 150.033 34.8032 153.102 34.8032H156.932V33.1719C156.932 31.9126 156.602 30.9395 155.943 30.2526C155.283 29.5658 154.221 29.2223 152.758 29.2223C151.467 29.2223 150.42 29.5085 149.617 30.0809C149.103 30.4417 148.639 30.8529 148.227 31.3144C147.89 31.6907 147.307 31.7609 146.93 31.4248L144.906 29.6179C144.596 29.3408 144.53 28.876 144.782 28.5448C145.555 27.5291 146.521 26.6961 147.68 26.0455C149.057 25.2442 150.879 24.8435 153.145 24.8435C156.187 24.8435 158.496 25.5304 160.074 26.9041C161.652 28.2779 162.441 30.2526 162.441 32.8284V43.3891H163.834C164.3 43.3891 164.678 43.7674 164.678 44.234V46.9231C164.678 47.3897 164.3 47.7679 163.834 47.7679H161.623ZM152.5 44.2906C153.734 44.2906 154.781 44.0187 155.641 43.475C156.502 42.9312 156.932 42.1298 156.932 41.0709V38.1088H153.404C150.535 38.1088 149.1 39.0246 149.1 40.8563V41.5861C149.1 42.5019 149.387 43.1888 149.961 43.6467C150.563 44.076 151.41 44.2906 152.5 44.2906Z" fill="#7200CC"/>
<path d="M176.71 48.2831C175.046 48.2831 173.569 48.0112 172.278 47.4674C170.987 46.9237 169.897 46.1366 169.007 45.1063C168.147 44.076 167.487 42.8453 167.028 41.4144C166.569 39.9547 166.339 38.3234 166.339 36.5204C166.339 34.7173 166.569 33.1003 167.028 31.6693C167.487 30.2383 168.147 29.022 169.007 28.0203C169.897 26.99 170.987 26.2029 172.278 25.6592C173.569 25.1154 175.046 24.8435 176.71 24.8435C178.977 24.8435 180.841 25.3444 182.305 26.346C183.585 27.2058 184.559 28.3501 185.226 29.7791C185.415 30.1829 185.215 30.6516 184.808 30.8334L181.913 32.1262C181.44 32.3374 180.897 32.0712 180.663 31.6089C180.39 31.0691 180.019 30.6027 179.55 30.2097C178.862 29.5801 177.915 29.2653 176.71 29.2653C175.161 29.2653 173.999 29.7518 173.225 30.7249C172.479 31.6979 172.106 32.9715 172.106 34.5456V38.6239C172.106 40.198 172.479 41.4716 173.225 42.4447C173.999 43.3891 175.161 43.8613 176.71 43.8613C178.03 43.8613 179.048 43.5322 179.766 42.874C180.279 42.3825 180.711 41.8104 181.063 41.1577C181.294 40.7279 181.817 40.5195 182.257 40.7302L184.961 42.0239C185.357 42.2133 185.545 42.6759 185.364 43.0753C184.626 44.6974 183.592 45.9468 182.262 46.8235C180.741 47.7966 178.891 48.2831 176.71 48.2831Z" fill="#7200CC"/>
<path d="M197.487 48.2831C195.823 48.2831 194.331 48.0112 193.012 47.4674C191.721 46.895 190.616 46.108 189.698 45.1063C188.809 44.076 188.12 42.8453 187.633 41.4144C187.145 39.9547 186.901 38.3234 186.901 36.5204C186.901 34.7459 187.131 33.1432 187.59 31.7123C188.077 30.2813 188.766 29.0649 189.655 28.0632C190.545 27.0329 191.635 26.2459 192.926 25.7021C194.217 25.1297 195.68 24.8435 197.315 24.8435C199.065 24.8435 200.586 25.144 201.877 25.745C203.168 26.346 204.229 27.1617 205.061 28.192C205.893 29.2223 206.51 30.4244 206.912 31.7981C207.342 33.1432 207.557 34.5885 207.557 36.134V37.0922C207.557 37.5588 207.179 37.937 206.712 37.937H192.624V38.4951C192.624 40.1265 193.084 41.443 194.002 42.4447C194.92 43.4177 196.282 43.9043 198.09 43.9043C199.467 43.9043 200.586 43.6181 201.446 43.0457C202.064 42.6478 202.634 42.1739 203.155 41.624C203.518 41.2416 204.137 41.2168 204.489 41.6087L206.33 43.6582C206.594 43.9525 206.622 44.394 206.368 44.697C205.497 45.7344 204.373 46.572 202.995 47.2099C201.418 47.9253 199.582 48.2831 197.487 48.2831ZM197.401 28.9648C195.938 28.9648 194.776 29.4513 193.915 30.4244C193.055 31.3974 192.624 32.6567 192.624 34.2022V34.5456H201.834V34.1592C201.834 32.6138 201.446 31.3688 200.672 30.4244C199.926 29.4513 198.836 28.9648 197.401 28.9648Z" fill="#7200CC"/>
</svg>
