<svg width="31" height="23" viewBox="0 0 31 23" fill="none" xmlns="http://www.w3.org/2000/svg">
<g clip-path="url(#clip0_1_1085)">
<path d="M14.3161 8.44311V16.6956V18.2191C14.3161 19.5357 13.7833 20.7318 12.9262 21.597C12.0691 22.4622 10.8841 23 9.57971 23C8.27533 23 7.09034 22.4622 6.23322 21.597C5.37611 20.7318 4.84331 19.5357 4.84331 18.2191V8.44311H4.85757C4.80767 7.67326 4.43168 6.97537 3.85077 6.46094C3.22709 5.90694 2.36642 5.56339 1.42199 5.56339C0.915917 5.56339 0.434793 5.66231 0 5.83859V3.10996C0.457958 3.01642 0.933736 2.96786 1.42199 2.96786C3.17363 2.96786 4.76669 3.6028 5.9196 4.62626C7.07252 5.64972 7.78707 7.0617 7.78707 8.61758V10.0979H7.76747V18.2191C7.76747 18.7209 7.9724 19.1778 8.30027 19.5087C8.62993 19.8415 9.08254 20.0465 9.57792 20.0465C10.0733 20.0465 10.5277 19.8397 10.8556 19.5087C11.1852 19.176 11.3884 18.7191 11.3884 18.2191V16.6956V8.44311V5.16407C11.3884 3.84742 11.9212 2.65309 12.7783 1.78611C13.6354 0.920936 14.8204 0.383123 16.1248 0.383123C17.4291 0.383123 18.6141 0.920936 19.4712 1.78611C20.3284 2.65129 20.8612 3.84742 20.8612 5.16407V13.0352V16.6956V17.3485C20.8612 18.1867 21.2478 18.9511 21.8733 19.5051C22.497 20.0591 23.3577 20.4027 24.3021 20.4027C25.2465 20.4027 26.1072 20.0591 26.7309 19.5051C27.3545 18.9511 27.743 18.1885 27.743 17.3485V13.0352H25.8043H22.8801V10.0817V2.87073V1.63862V0.142097C23.3381 0.048565 23.8138 0 24.3021 0C26.0537 0 27.6468 0.634942 28.7997 1.6584C29.9526 2.68186 30.669 4.09385 30.669 5.64972V7.13005H27.7448V5.64972C27.7448 4.81153 27.3581 4.04708 26.7327 3.49308C26.4636 3.25385 26.1517 3.0542 25.806 2.9049V10.0817H27.7448H29.5071H30.669V17.3485C30.669 18.9044 29.9526 20.3163 28.7997 21.3398C27.6468 22.3633 26.0537 22.9982 24.3021 22.9982C22.5504 22.9982 20.9574 22.3633 19.8045 21.3398C18.6516 20.3163 17.9352 18.9044 17.9352 17.3485V16.6956V13.0352V5.16407C17.9352 4.66224 17.7303 4.20537 17.4024 3.8744C17.0728 3.54164 16.6201 3.33659 16.1248 3.33659C15.6276 3.33659 15.175 3.54344 14.8471 3.8744C14.5175 4.20716 14.3143 4.66403 14.3143 5.16407V8.44311H14.3161Z" fill="#18A866"/>
</g>
<defs>
<clipPath id="clip0_1_1085">
<rect width="30.6707" height="23" fill="white"/>
</clipPath>
</defs>
</svg>
